<svg width="800" height="200" viewBox="0 0 800 200" fill="none" xmlns="http://www.w3.org/2000/svg">
<g clip-path="url(#clip0_1_23)">
<path d="M8.64 136V46.96H27.36V136H8.64ZM84.3338 136V123.4L83.1338 120.64V98.08C83.1338 94.08 81.8938 90.96 79.4138 88.72C77.0138 86.48 73.2938 85.36 68.2538 85.36C64.8138 85.36 61.4138 85.92 58.0538 87.04C54.7738 88.08 51.9738 89.52 49.6538 91.36L42.9338 78.28C46.4538 75.8 50.6938 73.88 55.6538 72.52C60.6138 71.16 65.6538 70.48 70.7738 70.48C80.6138 70.48 88.2538 72.8 93.6938 77.44C99.1338 82.08 101.854 89.32 101.854 99.16V136H84.3338ZM64.6538 136.96C59.6138 136.96 55.2938 136.12 51.6938 134.44C48.0938 132.68 45.3338 130.32 43.4138 127.36C41.4938 124.4 40.5338 121.08 40.5338 117.4C40.5338 113.56 41.4538 110.2 43.2938 107.32C45.2138 104.44 48.2138 102.2 52.2938 100.6C56.3738 98.92 61.6938 98.08 68.2538 98.08H85.4138V109H70.2938C65.8938 109 62.8538 109.72 61.1738 111.16C59.5738 112.6 58.7738 114.4 58.7738 116.56C58.7738 118.96 59.6938 120.88 61.5338 122.32C63.4538 123.68 66.0538 124.36 69.3338 124.36C72.4538 124.36 75.2538 123.64 77.7338 122.2C80.2138 120.68 82.0138 118.48 83.1338 115.6L86.0138 124.24C84.6538 128.4 82.1738 131.56 78.5738 133.72C74.9738 135.88 70.3338 136.96 64.6538 136.96ZM156.956 136.96C151.276 136.96 146.396 135.76 142.316 133.36C138.236 130.96 135.116 127.32 132.956 122.44C130.796 117.48 129.716 111.24 129.716 103.72C129.716 96.12 130.836 89.88 133.076 85C135.396 80.12 138.596 76.48 142.676 74.08C146.756 71.68 151.516 70.48 156.956 70.48C163.036 70.48 168.476 71.84 173.276 74.56C178.156 77.28 181.996 81.12 184.796 86.08C187.676 91.04 189.116 96.92 189.116 103.72C189.116 110.44 187.676 116.28 184.796 121.24C181.996 126.2 178.156 130.08 173.276 132.88C168.476 135.6 163.036 136.96 156.956 136.96ZM118.796 136V46.96H137.516V84.52L136.316 103.6L136.676 122.8V136H118.796ZM153.716 121.6C156.836 121.6 159.596 120.88 161.996 119.44C164.476 118 166.436 115.96 167.876 113.32C169.396 110.6 170.156 107.4 170.156 103.72C170.156 99.96 169.396 96.76 167.876 94.12C166.436 91.48 164.476 89.44 161.996 88C159.596 86.56 156.836 85.84 153.716 85.84C150.596 85.84 147.796 86.56 145.316 88C142.836 89.44 140.876 91.48 139.436 94.12C137.996 96.76 137.276 99.96 137.276 103.72C137.276 107.4 137.996 110.6 139.436 113.32C140.876 115.96 142.836 118 145.316 119.44C147.796 120.88 150.596 121.6 153.716 121.6Z" fill="#FFA500"/>
<path d="M388.64 136V71.44H406.52V89.08L403.16 83.92C405.4 79.52 408.56 76.2 412.64 73.96C416.8 71.64 421.52 70.48 426.8 70.48C432.72 70.48 437.88 72 442.28 75.04C446.76 78 449.72 82.56 451.16 88.72L444.56 86.92C446.72 81.88 450.16 77.88 454.88 74.92C459.68 71.96 465.16 70.48 471.32 70.48C476.44 70.48 480.96 71.52 484.88 73.6C488.88 75.6 492 78.72 494.24 82.96C496.56 87.12 497.72 92.48 497.72 99.04V136H479V101.92C479 96.72 477.92 92.88 475.76 90.4C473.6 87.92 470.56 86.68 466.64 86.68C463.92 86.68 461.48 87.32 459.32 88.6C457.16 89.8 455.48 91.64 454.28 94.12C453.08 96.6 452.48 99.76 452.48 103.6V136H433.76V101.92C433.76 96.72 432.68 92.88 430.52 90.4C428.44 87.92 425.44 86.68 421.52 86.68C418.8 86.68 416.36 87.32 414.2 88.6C412.04 89.8 410.36 91.64 409.16 94.12C407.96 96.6 407.36 99.76 407.36 103.6V136H388.64ZM554.099 136V123.4L552.899 120.64V98.08C552.899 94.08 551.659 90.96 549.179 88.72C546.779 86.48 543.059 85.36 538.019 85.36C534.579 85.36 531.179 85.92 527.819 87.04C524.539 88.08 521.739 89.52 519.419 91.36L512.699 78.28C516.219 75.8 520.459 73.88 525.419 72.52C530.379 71.16 535.419 70.48 540.539 70.48C550.379 70.48 558.019 72.8 563.459 77.44C568.899 82.08 571.619 89.32 571.619 99.16V136H554.099ZM534.419 136.96C529.379 136.96 525.059 136.12 521.459 134.44C517.859 132.68 515.099 130.32 513.179 127.36C511.259 124.4 510.299 121.08 510.299 117.4C510.299 113.56 511.219 110.2 513.059 107.32C514.979 104.44 517.979 102.2 522.059 100.6C526.139 98.92 531.459 98.08 538.019 98.08H555.179V109H540.059C535.659 109 532.619 109.72 530.939 111.16C529.339 112.6 528.539 114.4 528.539 116.56C528.539 118.96 529.459 120.88 531.299 122.32C533.219 123.68 535.819 124.36 539.099 124.36C542.219 124.36 545.019 123.64 547.499 122.2C549.979 120.68 551.779 118.48 552.899 115.6L555.779 124.24C554.419 128.4 551.939 131.56 548.339 133.72C544.739 135.88 540.099 136.96 534.419 136.96ZM614.962 136.96C607.362 136.96 601.442 135.04 597.202 131.2C592.962 127.28 590.842 121.48 590.842 113.8V57.16H609.562V113.56C609.562 116.28 610.282 118.4 611.722 119.92C613.162 121.36 615.122 122.08 617.602 122.08C620.562 122.08 623.082 121.28 625.162 119.68L630.202 132.88C628.282 134.24 625.962 135.28 623.242 136C620.602 136.64 617.842 136.96 614.962 136.96ZM580.882 85.84V71.44H625.642V85.84H580.882ZM640.71 136V71.44H659.43V136H640.71ZM650.07 62.44C646.63 62.44 643.83 61.44 641.67 59.44C639.51 57.44 638.43 54.96 638.43 52C638.43 49.04 639.51 46.56 641.67 44.56C643.83 42.56 646.63 41.56 650.07 41.56C653.51 41.56 656.31 42.52 658.47 44.44C660.63 46.28 661.71 48.68 661.71 51.64C661.71 54.76 660.63 57.36 658.47 59.44C656.39 61.44 653.59 62.44 650.07 62.44ZM708.004 136.96C701.044 136.96 694.844 135.56 689.404 132.76C683.964 129.88 679.684 125.92 676.564 120.88C673.524 115.84 672.004 110.12 672.004 103.72C672.004 97.24 673.524 91.52 676.564 86.56C679.684 81.52 683.964 77.6 689.404 74.8C694.844 71.92 701.044 70.48 708.004 70.48C714.804 70.48 720.724 71.92 725.764 74.8C730.804 77.6 734.524 81.64 736.924 86.92L722.404 94.72C720.724 91.68 718.604 89.44 716.044 88C713.564 86.56 710.844 85.84 707.884 85.84C704.684 85.84 701.804 86.56 699.244 88C696.684 89.44 694.644 91.48 693.124 94.12C691.684 96.76 690.964 99.96 690.964 103.72C690.964 107.48 691.684 110.68 693.124 113.32C694.644 115.96 696.684 118 699.244 119.44C701.804 120.88 704.684 121.6 707.884 121.6C710.844 121.6 713.564 120.92 716.044 119.56C718.604 118.12 720.724 115.84 722.404 112.72L736.924 120.64C734.524 125.84 730.804 129.88 725.764 132.76C720.724 135.56 714.804 136.96 708.004 136.96ZM769.423 136.96C763.903 136.96 758.583 136.32 753.463 135.04C748.423 133.68 744.423 132 741.463 130L747.703 116.56C750.663 118.4 754.143 119.92 758.143 121.12C762.223 122.24 766.223 122.8 770.143 122.8C774.463 122.8 777.503 122.28 779.263 121.24C781.103 120.2 782.023 118.76 782.023 116.92C782.023 115.4 781.303 114.28 779.863 113.56C778.503 112.76 776.663 112.16 774.342 111.76C772.023 111.36 769.463 110.96 766.663 110.56C763.943 110.16 761.183 109.64 758.383 109C755.583 108.28 753.023 107.24 750.703 105.88C748.383 104.52 746.503 102.68 745.063 100.36C743.703 98.04 743.022 95.04 743.022 91.36C743.022 87.28 744.183 83.68 746.503 80.56C748.903 77.44 752.343 75 756.823 73.24C761.303 71.4 766.663 70.48 772.903 70.48C777.303 70.48 781.783 70.96 786.343 71.92C790.903 72.88 794.703 74.28 797.743 76.12L791.503 89.44C788.383 87.6 785.223 86.36 782.023 85.72C778.903 85 775.863 84.64 772.903 84.64C768.743 84.64 765.703 85.2 763.783 86.32C761.863 87.44 760.903 88.88 760.903 90.64C760.903 92.24 761.583 93.44 762.943 94.24C764.383 95.04 766.263 95.68 768.583 96.16C770.903 96.64 773.423 97.08 776.143 97.48C778.943 97.8 781.743 98.32 784.543 99.04C787.343 99.76 789.863 100.8 792.103 102.16C794.423 103.44 796.303 105.24 797.743 107.56C799.183 109.8 799.903 112.76 799.903 116.44C799.903 120.44 798.703 124 796.303 127.12C793.903 130.16 790.423 132.56 785.863 134.32C781.383 136.08 775.903 136.96 769.423 136.96Z" fill="#4A4A4A"/>
<g clip-path="url(#clip1_1_23)">
<path d="M288 166.75C324.865 166.75 354.75 136.865 354.75 100C354.75 63.135 324.865 33.25 288 33.25C251.135 33.25 221.25 63.135 221.25 100C221.25 136.865 251.135 166.75 288 166.75Z" stroke="#FF6B00" stroke-width="10"/>
<path d="M291.9 15.45H284.1C281.339 15.45 279.1 17.6886 279.1 20.45V46.05C279.1 48.8114 281.339 51.05 284.1 51.05H291.9C294.661 51.05 296.9 48.8114 296.9 46.05V20.45C296.9 17.6886 294.661 15.45 291.9 15.45Z" fill="#FF6B00" stroke="#FF6B00"/>
<path d="M350.544 42.9718L345.028 37.4564C343.076 35.5038 339.91 35.5038 337.957 37.4564L319.855 55.5583C317.903 57.511 317.903 60.6768 319.855 62.6294L325.371 68.1448C327.323 70.0975 330.489 70.0975 332.442 68.1448L350.544 50.0429C352.496 48.0903 352.496 44.9245 350.544 42.9718Z" fill="#FF6B00" stroke="#FF6B00"/>
<path d="M372.55 103.9V96.1C372.55 93.3386 370.311 91.1 367.55 91.1H341.95C339.189 91.1 336.95 93.3386 336.95 96.1V103.9C336.95 106.661 339.189 108.9 341.95 108.9H367.55C370.311 108.9 372.55 106.661 372.55 103.9Z" fill="#FF6B00" stroke="#FF6B00"/>
<path d="M345.028 162.544L350.544 157.028C352.496 155.076 352.496 151.91 350.544 149.957L332.442 131.855C330.489 129.903 327.323 129.903 325.371 131.855L319.855 137.371C317.903 139.323 317.903 142.489 319.855 144.442L337.957 162.544C339.91 164.496 343.076 164.496 345.028 162.544Z" fill="#FF6B00" stroke="#FF6B00"/>
<path d="M284.1 184.55H291.9C294.661 184.55 296.9 182.311 296.9 179.55V153.95C296.9 151.189 294.661 148.95 291.9 148.95H284.1C281.339 148.95 279.1 151.189 279.1 153.95V179.55C279.1 182.311 281.339 184.55 284.1 184.55Z" fill="#FF6B00" stroke="#FF6B00"/>
<path d="M225.456 157.028L230.972 162.544C232.924 164.496 236.09 164.496 238.043 162.544L256.145 144.442C258.097 142.489 258.097 139.323 256.145 137.371L250.629 131.855C248.677 129.903 245.511 129.903 243.558 131.855L225.456 149.957C223.504 151.91 223.504 155.076 225.456 157.028Z" fill="#FF6B00" stroke="#FF6B00"/>
<path d="M203.45 96.1V103.9C203.45 106.661 205.689 108.9 208.45 108.9H234.05C236.811 108.9 239.05 106.661 239.05 103.9V96.1C239.05 93.3386 236.811 91.1 234.05 91.1H208.45C205.689 91.1 203.45 93.3386 203.45 96.1Z" fill="#FF6B00" stroke="#FF6B00"/>
<path d="M230.972 37.4564L225.456 42.9718C223.504 44.9245 223.504 48.0903 225.456 50.0429L243.558 68.1448C245.511 70.0975 248.677 70.0975 250.629 68.1448L256.145 62.6294C258.097 60.6768 258.097 57.511 256.145 55.5583L238.043 37.4564C236.09 35.5038 232.924 35.5038 230.972 37.4564Z" fill="#FF6B00" stroke="#FF6B00"/>
<path d="M290.063 69.9263C289.18 69.6394 288.374 69.9806 287.802 70.395C287.231 70.8095 286.795 71.3099 286.575 71.987C286.355 72.6641 286.392 73.3333 286.572 74.0501C286.752 74.767 287.129 75.6343 288.105 75.9514L288.084 75.9444L288.785 76.189L284.54 89.2548C276.74 94.5193 261.573 104.795 261.573 104.795L261.512 104.836L261.458 104.885C260.609 105.652 259.659 106.793 259.151 108.355C257.915 112.16 260.034 116.317 263.798 117.54L295.7 127.906C299.454 129.126 303.609 127.052 304.859 123.206C305.426 121.461 305.098 119.895 304.907 119.001L304.892 118.927L295.425 93.2031L299.792 79.7646C300.071 79.8474 300.122 79.8562 300.471 79.9693L300.481 79.9723C301.457 80.2895 302.272 79.8094 302.839 79.3356C303.023 79.1817 303.185 79.0198 303.337 78.8526L303.534 78.7515L303.448 78.7233C303.709 78.409 303.919 78.0664 304.049 77.6646C304.269 76.9878 304.211 76.3267 303.992 75.6553C303.773 74.9838 303.321 74.2341 302.438 73.9472L290.063 69.9262L290.063 69.9263ZM289.413 71.9276L301.788 75.9487C301.778 75.9454 301.912 76.039 302.003 76.3167C302.093 76.5943 302.069 76.9886 302.059 77.0183C302.05 77.0479 301.785 77.4852 301.503 77.7205C301.223 77.9549 301.03 77.9375 301.131 77.9706C300.403 77.7341 299.834 77.5724 299.598 77.5063L299.605 77.4841L289.282 74.1299L289.281 74.1331L288.767 73.9536L288.756 73.95C288.859 73.9837 288.691 73.8845 288.602 73.5286C288.513 73.1728 288.555 72.6634 288.565 72.6337C288.575 72.6041 288.787 72.271 289.023 72.0995C289.26 71.9283 289.423 71.9312 289.413 71.9279L289.413 71.9276ZM290.777 76.8282L297.804 79.1116L295.192 87.1511L295.188 87.1496L293.361 92.7718L293.364 92.7795L293.21 93.2531L302.873 119.514C303.055 120.37 303.239 121.42 302.869 122.56C301.976 125.308 299.018 126.771 296.351 125.905L264.449 115.539C261.792 114.676 260.267 111.692 261.141 109.001C261.265 108.62 261.429 108.271 261.618 107.95L261.621 107.961C261.822 107.615 262.048 107.313 262.28 107.049L262.253 107.069C262.438 106.854 262.628 106.659 262.816 106.486C262.916 106.418 278.331 95.9743 286.004 90.7959L286.305 90.5929L286.345 90.4692C286.349 90.4668 286.356 90.4622 286.359 90.4598L288.175 84.8711L288.165 84.8679L290.777 76.8283L290.777 76.8282ZM290.165 85.5176L288.125 91.7952L287.825 91.9981C282.68 95.4784 264.303 108.021 264.17 108.112C263.77 108.479 263.356 108.994 263.143 109.65C262.613 111.279 263.539 113.092 265.14 113.612L296.977 123.957C298.587 124.48 300.379 123.596 300.921 121.926C301.14 121.253 301.034 120.627 300.915 120.06L291.147 92.8121L293.197 86.5028L290.165 85.5175L290.165 85.5176ZM285.567 98.1999C287.805 98.927 289.04 101.369 288.309 103.62C287.578 105.87 285.143 107.12 282.905 106.393C280.667 105.666 279.432 103.224 280.163 100.973C280.894 98.7225 283.33 97.4728 285.567 98.1999ZM284.917 100.202C283.755 99.824 282.533 100.451 282.153 101.619C281.773 102.788 282.394 104.014 283.556 104.391C284.718 104.769 285.94 104.142 286.319 102.973C286.699 101.804 286.079 100.579 284.917 100.201L284.917 100.202ZM276.589 103.986C278.827 104.713 280.063 107.156 279.331 109.406C278.6 111.657 276.165 112.906 273.927 112.179C271.69 111.452 270.454 109.01 271.185 106.759C271.916 104.509 274.352 103.259 276.589 103.986ZM286.505 108.476C289.132 109.329 290.579 112.191 289.721 114.832C288.863 117.474 286.009 118.938 283.383 118.084C280.757 117.231 279.309 114.37 280.167 111.728C281.026 109.087 283.879 107.623 286.505 108.476ZM275.939 105.988C274.777 105.61 273.555 106.237 273.175 107.406C272.796 108.575 273.416 109.8 274.578 110.178C275.74 110.555 276.962 109.928 277.341 108.76C277.721 107.591 277.101 106.365 275.939 105.988ZM285.855 110.478C284.304 109.974 282.664 110.815 282.158 112.375C281.651 113.934 282.483 115.579 284.034 116.083C285.584 116.587 287.224 115.746 287.731 114.186C288.238 112.626 287.406 110.981 285.855 110.478Z" fill="#FF6B00"/>
</g>
</g>
<defs>
<clipPath id="clip0_1_23">
<rect width="800" height="200" fill="white"/>
</clipPath>
<clipPath id="clip1_1_23">
<rect width="178" height="178" fill="white" transform="translate(199 11)"/>
</clipPath>
</defs>
</svg>
